<svg width="74" height="30" viewBox="0 0 74 30" fill="none" xmlns="http://www.w3.org/2000/svg">
<path d="M6.72 22.192C5.86667 22.192 5.072 22.0373 4.336 21.728C3.61067 21.4187 2.976 20.9867 2.432 20.432C1.888 19.8773 1.46133 19.2267 1.152 18.48C0.853333 17.7333 0.704 16.9173 0.704 16.032C0.704 15.1467 0.853333 14.3307 1.152 13.584C1.45067 12.8267 1.872 12.176 2.416 11.632C2.96 11.0773 3.59467 10.6507 4.32 10.352C5.056 10.0427 5.856 9.888 6.72 9.888C7.584 9.888 8.35733 10.032 9.04 10.32C9.73333 10.608 10.32 10.992 10.8 11.472C11.28 11.952 11.6213 12.4853 11.824 13.072L9.632 14.128C9.42933 13.552 9.072 13.0773 8.56 12.704C8.05867 12.32 7.44533 12.128 6.72 12.128C6.016 12.128 5.39733 12.2933 4.864 12.624C4.33067 12.9547 3.91467 13.4133 3.616 14C3.328 14.576 3.184 15.2533 3.184 16.032C3.184 16.8107 3.328 17.4933 3.616 18.08C3.91467 18.6667 4.33067 19.1253 4.864 19.456C5.39733 19.7867 6.016 19.952 6.72 19.952C7.44533 19.952 8.05867 19.7653 8.56 19.392C9.072 19.008 9.42933 18.528 9.632 17.952L11.824 19.008C11.6213 19.5947 11.28 20.128 10.8 20.608C10.32 21.088 9.73333 21.472 9.04 21.76C8.35733 22.048 7.584 22.192 6.72 22.192ZM16.4154 22V10.08H18.8954V22H16.4154ZM24.0091 22V10.08H28.5691C29.3905 10.08 30.1158 10.224 30.7451 10.512C31.3851 10.8 31.8865 11.2267 32.2491 11.792C32.6118 12.3573 32.7931 13.056 32.7931 13.888C32.7931 14.6987 32.6065 15.392 32.2331 15.968C31.8598 16.5333 31.3585 16.96 30.7291 17.248L33.4491 22H30.6651L27.7211 16.736L29.3211 17.68H26.4891V22H24.0091ZM26.4891 15.52H28.5851C28.9371 15.52 29.2411 15.4507 29.4971 15.312C29.7531 15.1733 29.9505 14.9813 30.0891 14.736C30.2385 14.4907 30.3131 14.208 30.3131 13.888C30.3131 13.5573 30.2385 13.2693 30.0891 13.024C29.9505 12.7787 29.7531 12.5867 29.4971 12.448C29.2411 12.3093 28.9371 12.24 28.5851 12.24H26.4891V15.52ZM43.345 22.192C42.4917 22.192 41.697 22.0373 40.961 21.728C40.2357 21.4187 39.601 20.9867 39.057 20.432C38.513 19.8773 38.0863 19.2267 37.777 18.48C37.4783 17.7333 37.329 16.9173 37.329 16.032C37.329 15.1467 37.4783 14.3307 37.777 13.584C38.0757 12.8267 38.497 12.176 39.041 11.632C39.585 11.0773 40.2197 10.6507 40.945 10.352C41.681 10.0427 42.481 9.888 43.345 9.888C44.209 9.888 44.9823 10.032 45.665 10.32C46.3583 10.608 46.945 10.992 47.425 11.472C47.905 11.952 48.2463 12.4853 48.449 13.072L46.257 14.128C46.0543 13.552 45.697 13.0773 45.185 12.704C44.6837 12.32 44.0703 12.128 43.345 12.128C42.641 12.128 42.0223 12.2933 41.489 12.624C40.9557 12.9547 40.5397 13.4133 40.241 14C39.953 14.576 39.809 15.2533 39.809 16.032C39.809 16.8107 39.953 17.4933 40.241 18.08C40.5397 18.6667 40.9557 19.1253 41.489 19.456C42.0223 19.7867 42.641 19.952 43.345 19.952C44.0703 19.952 44.6837 19.7653 45.185 19.392C45.697 19.008 46.0543 18.528 46.257 17.952L48.449 19.008C48.2463 19.5947 47.905 20.128 47.425 20.608C46.945 21.088 46.3583 21.472 45.665 21.76C44.9823 22.048 44.209 22.192 43.345 22.192ZM53.0404 22V10.08H55.5204V19.84H60.5604V22H53.0404ZM64.7904 22V10.08H72.8064V12.24H67.2704V14.944H72.4864V17.104H67.2704V19.84H72.8064V22H64.7904Z" fill="#18181B"/>
</svg>
