<svg width="114" height="45" viewBox="0 0 114 45" fill="none" xmlns="http://www.w3.org/2000/svg">
<rect width="114" height="45" rx="10" fill="black"/>
<path d="M34.0174 29.692C33.26 29.692 32.556 29.5533 31.9054 29.276C31.2654 28.9987 30.7107 28.6147 30.2414 28.124C29.7827 27.6227 29.4467 27.0413 29.2334 26.38L31.0414 25.596C31.3294 26.2787 31.7454 26.8173 32.2894 27.212C32.8334 27.596 33.4467 27.788 34.1294 27.788C34.5134 27.788 34.844 27.7293 35.1214 27.612C35.4094 27.484 35.628 27.3133 35.7774 27.1C35.9374 26.8867 36.0174 26.6307 36.0174 26.332C36.0174 25.98 35.9107 25.692 35.6974 25.468C35.4947 25.2333 35.1854 25.052 34.7694 24.924L32.4814 24.188C31.5534 23.9 30.8547 23.468 30.3854 22.892C29.916 22.316 29.6814 21.6387 29.6814 20.86C29.6814 20.1773 29.8467 19.5747 30.1774 19.052C30.5187 18.5293 30.988 18.124 31.5854 17.836C32.1934 17.5373 32.8867 17.388 33.6654 17.388C34.38 17.388 35.036 17.516 35.6334 17.772C36.2307 18.0173 36.7427 18.364 37.1694 18.812C37.6067 19.2493 37.932 19.7667 38.1454 20.364L36.3534 21.164C36.1187 20.5667 35.7667 20.108 35.2974 19.788C34.828 19.4573 34.284 19.292 33.6654 19.292C33.3027 19.292 32.9827 19.356 32.7054 19.484C32.428 19.6013 32.2094 19.772 32.0494 19.996C31.9 20.2093 31.8254 20.4653 31.8254 20.764C31.8254 21.0947 31.932 21.388 32.1454 21.644C32.3587 21.8893 32.684 22.0813 33.1214 22.22L35.3134 22.908C36.2627 23.2173 36.972 23.644 37.4414 24.188C37.9214 24.732 38.1614 25.404 38.1614 26.204C38.1614 26.8867 37.9854 27.4893 37.6334 28.012C37.2814 28.5347 36.796 28.9453 36.1774 29.244C35.5587 29.5427 34.8387 29.692 34.0174 29.692ZM39.9448 29.5V20.796H42.0408V29.5H39.9448ZM39.9448 19.82V17.58H42.0408V19.82H39.9448ZM48.2 33.02C47.5493 33.02 46.9467 32.9133 46.392 32.7C45.8373 32.4867 45.3573 32.188 44.952 31.804C44.5573 31.4307 44.2693 30.988 44.088 30.476L46.04 29.74C46.168 30.1453 46.4187 30.4707 46.792 30.716C47.176 30.972 47.6453 31.1 48.2 31.1C48.6267 31.1 49 31.02 49.32 30.86C49.6507 30.7 49.9067 30.4653 50.088 30.156C50.2693 29.8573 50.36 29.4947 50.36 29.068V27.084L50.76 27.564C50.4613 28.0867 50.0613 28.4813 49.56 28.748C49.0587 29.0147 48.488 29.148 47.848 29.148C47.0373 29.148 46.312 28.9613 45.672 28.588C45.032 28.2147 44.5307 27.7027 44.168 27.052C43.8053 26.4013 43.624 25.6707 43.624 24.86C43.624 24.0387 43.8053 23.308 44.168 22.668C44.5307 22.028 45.0267 21.5267 45.656 21.164C46.2853 20.7907 47 20.604 47.8 20.604C48.4507 20.604 49.0213 20.7427 49.512 21.02C50.0133 21.2867 50.4293 21.676 50.76 22.188L50.472 22.716V20.796H52.456V29.068C52.456 29.8253 52.2693 30.5027 51.896 31.1C51.5333 31.6973 51.032 32.1667 50.392 32.508C49.7627 32.8493 49.032 33.02 48.2 33.02ZM48.104 27.212C48.552 27.212 48.9413 27.116 49.272 26.924C49.6133 26.7213 49.88 26.444 50.072 26.092C50.264 25.74 50.36 25.3347 50.36 24.876C50.36 24.428 50.2587 24.028 50.056 23.676C49.864 23.3133 49.5973 23.0307 49.256 22.828C48.9253 22.6253 48.5413 22.524 48.104 22.524C47.6667 22.524 47.272 22.6253 46.92 22.828C46.568 23.0307 46.2907 23.3133 46.088 23.676C45.896 24.028 45.8 24.428 45.8 24.876C45.8 25.324 45.896 25.724 46.088 26.076C46.2907 26.428 46.5627 26.7053 46.904 26.908C47.256 27.1107 47.656 27.212 48.104 27.212ZM54.4135 29.5V20.796H56.3815V22.508L56.2215 22.204C56.4242 21.6813 56.7548 21.2867 57.2135 21.02C57.6828 20.7427 58.2268 20.604 58.8455 20.604C59.4855 20.604 60.0508 20.7427 60.5415 21.02C61.0428 21.2973 61.4322 21.6867 61.7095 22.188C61.9868 22.6787 62.1255 23.2493 62.1255 23.9V29.5H60.0295V24.396C60.0295 24.012 59.9548 23.6813 59.8055 23.404C59.6562 23.1267 59.4482 22.9133 59.1815 22.764C58.9255 22.604 58.6215 22.524 58.2695 22.524C57.9282 22.524 57.6242 22.604 57.3575 22.764C57.0908 22.9133 56.8828 23.1267 56.7335 23.404C56.5842 23.6813 56.5095 24.012 56.5095 24.396V29.5H54.4135ZM69.8456 29.692C69.1736 29.692 68.587 29.5427 68.0856 29.244C67.595 28.9453 67.2163 28.5293 66.9496 27.996C66.6936 27.4627 66.5656 26.8387 66.5656 26.124V20.796H68.6616V25.948C68.6616 26.3107 68.731 26.6307 68.8696 26.908C69.019 27.1747 69.227 27.388 69.4936 27.548C69.771 27.6973 70.0803 27.772 70.4216 27.772C70.763 27.772 71.067 27.6973 71.3336 27.548C71.6003 27.388 71.8083 27.1693 71.9576 26.892C72.107 26.6147 72.1816 26.284 72.1816 25.9V20.796H74.2776V29.5H72.2936V27.788L72.4696 28.092C72.267 28.6253 71.931 29.0253 71.4616 29.292C71.003 29.5587 70.4643 29.692 69.8456 29.692ZM76.226 32.7V20.796H78.194V22.524L78.002 22.092C78.3007 21.6227 78.706 21.26 79.218 21.004C79.73 20.7373 80.322 20.604 80.994 20.604C81.8153 20.604 82.5567 20.8067 83.218 21.212C83.8793 21.6173 84.402 22.1613 84.786 22.844C85.1807 23.5267 85.378 24.2947 85.378 25.148C85.378 25.9907 85.186 26.7587 84.802 27.452C84.418 28.1453 83.8953 28.6947 83.234 29.1C82.5727 29.4947 81.8207 29.692 80.978 29.692C80.3487 29.692 79.7673 29.5693 79.234 29.324C78.7113 29.068 78.2953 28.7053 77.986 28.236L78.322 27.82V32.7H76.226ZM80.738 27.772C81.218 27.772 81.6447 27.66 82.018 27.436C82.3913 27.212 82.6793 26.9027 82.882 26.508C83.0953 26.1133 83.202 25.66 83.202 25.148C83.202 24.636 83.0953 24.188 82.882 23.804C82.6793 23.4093 82.3913 23.1 82.018 22.876C81.6447 22.6413 81.218 22.524 80.738 22.524C80.2793 22.524 79.8633 22.636 79.49 22.86C79.1273 23.084 78.8393 23.3987 78.626 23.804C78.4233 24.1987 78.322 24.6467 78.322 25.148C78.322 25.66 78.4233 26.1133 78.626 26.508C78.8393 26.9027 79.1273 27.212 79.49 27.436C79.8633 27.66 80.2793 27.772 80.738 27.772Z" fill="white"/>
</svg>
